#N canvas 1056 112 450 300 10;
#N canvas 714 276 1200 642 breakbeats 1;
#X obj 280 32 inlet;
#N canvas 2 50 450 300 panns 0;
#X obj 47 140 *~ 1;
#X obj 176 140 e_pan 0.7;
#X obj 101 137 e_pan 0.3;
#X obj 47 91 inlet~;
#X obj 102 92 inlet~;
#X obj 175 91 inlet~;
#X obj 156 240 outlet~;
#X obj 64 240 outlet~;
#X obj 271 141 e_pan 0.5;
#X obj 273 92 inlet~;
#X connect 0 0 6 0;
#X connect 0 0 7 0;
#X connect 1 0 7 0;
#X connect 1 1 6 0;
#X connect 2 0 7 0;
#X connect 2 1 6 0;
#X connect 3 0 0 0;
#X connect 4 0 2 0;
#X connect 5 0 1 0;
#X connect 8 0 7 0;
#X connect 8 1 6 0;
#X connect 9 0 8 0;
#X restore 190 401 pd panns;
#X obj 160 479 outlet~;
#X obj 262 485 outlet~;
#N canvas 568 245 450 300 (subpatch) 0;
#X array \$1/bd-prob 16 float 3;
#A 0 0.99 0.1 0.4 0.01 0.01 0.01 0.01 0.01 0.01 0.01 0.01 0.01 0.01
0.01 0.01 0.2;
#X coords 0 1 15 -1 50 25 1;
#X restore 1129 317 graph;
#N canvas 0 50 450 300 (subpatch) 0;
#X array \$1/sd-prob 16 float 3;
#A 0 0.01 0.01 0.01 0.01 0.99 0.01 0.01 0.01 0.01 0.01 0.01 0.01 0.99
0.01 0.01 0.01;
#X coords 0 1 15 -1 50 25 1;
#X restore 1129 360 graph;
#N canvas 0 50 450 300 (subpatch) 0;
#X array \$1/hh-prob 16 float 3;
#A 0 0.95 0.75 0.95 0.75 0.95 0.75 0.95 0.75 0.95 0.75 0.95 0.75 0.95
0.75 0.95 0.75;
#X coords 0 1 15 -1 50 25 1;
#X restore 1129 403 graph;
#X obj 681 238 t b b;
#X obj 713 280 u_seededrandom 2 \$1/seed;
#X obj 713 300 + 1;
#X obj 713 320 * 8;
#X obj 136 196 *~ 2;
#X obj 280 221 *~ 0.5;
#X obj 164 250 *~;
#X obj 144 82 t f f;
#X obj 222 190 mod 2;
#X obj 223 211 + 0;
#X obj 227 107 + 1;
#X obj 223 232 * 2;
#X obj 222 252 + 0.5;
#X obj 144 63 +;
#X obj 280 97 +;
#X obj 13 63 +;
#X obj 950 24 loadbang;
#X obj 759 117 u_seededrandom 2 \$1/seed;
#X obj 759 138 sel 0 1;
#X text 847 369 hip hop style;
#X obj 33 248 *~;
#X obj 13 83 t f f;
#X obj 91 188 mod 2;
#X obj 92 209 + 0;
#X obj 96 101 + 1;
#X obj 92 230 * 2;
#X obj 91 250 + 0.5;
#X obj 638 471 t b b;
#X obj 658 142 sel 0;
#X obj 658 121 u_seededrandom 3 \$1/seed;
#N canvas 297 106 470 445 make-fill 0;
#X obj 18 42 inlet;
#X text 13 4 fill happens in the second half of the big beat before
the second snare;
#X obj 18 63 t b b;
#X obj 18 106 until;
#X obj 18 214 u_seededrandom 5 \$1/seed;
#X obj 18 234 sel 0;
#X obj 70 151 f;
#X obj 100 151 + 1;
#X msg 65 85 0;
#X obj 18 126 t b b;
#X msg 50 254 bang;
#X text 156 170 consecutively less likely snare/bass;
#X obj 50 274 u_seededrandom 3 \$1/seed;
#X text 130 269 snare or bass?;
#X obj 50 294 sel 0;
#X obj 70 172 t f f;
#X obj 81 341 f;
#X obj 50 317 f;
#X msg 81 317 bang;
#X obj 101 194 * 2;
#X obj 70 194 + 2;
#X msg 18 85 4;
#X obj 101 214 + 5;
#X msg 192 397 \; \$2/sd-loop \$1 1;
#X msg 21 408 \; \$2/bd-loop \$1 1;
#X obj 192 375 fsdollar \$1;
#X obj 21 386 fsdollar \$1;
#X connect 0 0 2 0;
#X connect 2 0 21 0;
#X connect 2 1 8 0;
#X connect 3 0 9 0;
#X connect 4 0 5 0;
#X connect 5 1 10 0;
#X connect 6 0 7 0;
#X connect 6 0 15 0;
#X connect 7 0 6 1;
#X connect 8 0 6 1;
#X connect 9 0 4 0;
#X connect 9 1 6 0;
#X connect 10 0 12 0;
#X connect 12 0 14 0;
#X connect 14 0 17 0;
#X connect 14 1 18 0;
#X connect 15 0 20 0;
#X connect 15 1 19 0;
#X connect 16 0 25 0;
#X connect 17 0 26 0;
#X connect 18 0 16 0;
#X connect 19 0 22 0;
#X connect 20 0 4 1;
#X connect 21 0 3 0;
#X connect 22 0 16 1;
#X connect 22 0 17 1;
#X connect 25 0 23 0;
#X connect 26 0 24 0;
#X restore 512 574 pd make-fill;
#X text 393 530 do we want fill?;
#X obj 514 551 sel 0;
#X obj 514 531 u_seededrandom 5 \$1/seed;
#X obj 398 91 +;
#X obj 408 189 +~;
#N canvas 606 50 627 510 make-cowbell 0;
#X obj 8 8 inlet;
#N canvas 509 99 450 343 trillmaker 0;
#X obj 7 10 inlet;
#X obj 9 95 u_seededrandom 7 \$1/seed;
#X text 21 117 length;
#X text 198 114 offset;
#X obj 82 95 u_seededrandom 16 \$1/seed;
#X obj 49 224 mod 16;
#X obj 49 200 +;
#X obj 49 179 f;
#X obj 79 179 + 1;
#X obj 8 32 t b b b;
#X msg 131 128 0;
#X obj 48 156 until;
#X obj 49 246 fsdollar \$1;
#X msg 49 269 \; \$2/cowbell-loop \$1 1 \;;
#X connect 0 0 9 0;
#X connect 1 0 11 0;
#X connect 4 0 6 1;
#X connect 5 0 12 0;
#X connect 6 0 5 0;
#X connect 7 0 8 0;
#X connect 7 0 6 0;
#X connect 8 0 7 1;
#X connect 9 0 1 0;
#X connect 9 1 4 0;
#X connect 9 2 10 0;
#X connect 10 0 7 1;
#X connect 11 0 7 0;
#X connect 12 0 13 0;
#X restore 42 412 pd trillmaker;
#X obj 42 82 u_seededrandom 15 \$1/seed;
#X obj 42 106 sel 0 1 2 3 4;
#X obj 153 66 symbol \$1;
#X msg 153 86 \; \$1/cowbell-offset 0 \; \$1/cowbell-loop const 0 \;
;
#X obj 130 142 symbol \$1;
#X obj 130 211 symbol \$1;
#X obj 131 289 symbol \$1;
#X obj 131 359 symbol \$1;
#X msg 130 231 \; \$1/cowbell-loop 0 0 0 0 0 0 0 1 0 0 0 0 0 0 0 1
0 \;;
#X msg 130 162 \; \$1/cowbell-loop 0 0 0 0 0 1 0 0 0 0 0 0 0 1 0 0
0 \;;
#X msg 131 309 \; \$1/cowbell-loop 0 0 0 1 0 0 0 1 0 0 0 1 0 0 0 1
0 \;;
#X msg 131 379 \; \$1/cowbell-loop 0 0 0 0 0 0 0 1 0 0 1 0 0 1 0 0
0 0 0 \;;
#X obj 8 29 t b b b b;
#N canvas 11 114 450 481 bellsaver 0;
#X obj 16 9 inlet;
#X obj 42 325 sssad/sssad \$1/cowbell-pattern;
#X obj 61 77 t b 0;
#X obj 61 176 f;
#X obj 89 176 + 1;
#X obj 61 155 until;
#X obj 61 133 16;
#X obj 42 257 list;
#X obj 61 232 list append;
#X obj 148 233 t l;
#X obj 42 38 t b b b;
#X obj 42 347 filltable \$1/cowbell-loop;
#X obj 105 107 r \$1/loop-length;
#X obj 61 200 tabread \$1/cowbell-loop;
#X msg 61 9 bang;
#X obj 42 279 list prepend 0;
#X obj 42 301 list trim;
#X obj 86 385 print-receive \$1/cowbell-loop;
#X connect 0 0 10 0;
#X connect 1 0 11 0;
#X connect 2 0 6 0;
#X connect 2 1 3 1;
#X connect 3 0 4 0;
#X connect 3 0 13 0;
#X connect 4 0 3 1;
#X connect 5 0 3 0;
#X connect 6 0 5 0;
#X connect 7 0 15 0;
#X connect 8 0 9 0;
#X connect 8 0 7 1;
#X connect 9 0 8 1;
#X connect 10 0 7 0;
#X connect 10 1 2 0;
#X connect 10 2 8 1;
#X connect 12 0 6 1;
#X connect 13 0 8 0;
#X connect 14 0 10 0;
#X connect 15 0 16 0;
#X connect 16 0 1 1;
#X restore 25 448 pd bellsaver;
#X connect 0 0 14 0;
#X connect 2 0 3 0;
#X connect 3 0 1 0;
#X connect 3 1 9 0;
#X connect 3 2 8 0;
#X connect 3 3 7 0;
#X connect 3 4 6 0;
#X connect 4 0 5 0;
#X connect 6 0 11 0;
#X connect 7 0 10 0;
#X connect 8 0 12 0;
#X connect 9 0 13 0;
#X connect 14 1 15 0;
#X connect 14 2 2 0;
#X connect 14 3 4 0;
#X restore 787 94 pd make-cowbell;
#X obj 405 116 +;
#N canvas 106 285 450 300 cowbell-play 0;
#X obj 11 252 outlet~;
#X obj 314 11 samplerate~ 44100;
#X obj 12 200 vline~;
#X msg 12 179 0 \, 44100 680;
#X obj 12 157 r \$1/cowbell-shot;
#X obj 11 229 tabread4~ cowbell-1;
#X connect 2 0 5 0;
#X connect 3 0 2 0;
#X connect 4 0 3 0;
#X connect 5 0 0 0;
#X restore 408 166 pd cowbell-play;
#X obj 636 86 t b b b b;
#X obj 407 218 *~ 0.75;
#X obj 249 358 *~ 1;
#X obj 274 316 r \$1/hh-volume;
#X obj 379 359 *~ 1;
#X obj 274 337 / 127;
#X obj 404 337 / 127;
#X obj 151 319 *~ 1;
#X obj 176 298 / 127;
#X obj 26 325 *~ 1;
#X obj 51 304 / 127;
#X obj 51 283 r \$1/bd-volume;
#X obj 176 277 r \$1/sd-volume;
#X obj 144 37 r \$0/tick;
#X obj 13 42 r \$0/tick;
#X obj 280 76 r \$0/tick;
#X obj 398 60 r \$0/tick;
#X obj 636 63 r \$1/makenew;
#X obj 680 21 r \$1/makenew;
#X obj 582 37 r \$1/pickbeat;
#X obj 781 21 r \$1/picksamples;
#X obj 950 45 symbol \$1;
#X msg 950 73 \; \$1/bd-samples 8 \; \$1/sd-samples 8 \; \$1/hh-samples
8 \;;
#X obj 670 495 symbol \$1;
#X msg 670 517 \; \$1/loop-length 16 \; \$1/bd-prob 0 0.99 0.1 0.4
0.01 0.01 0.01 0.01 0.01 0.01 0.01 0.01 0.01 0.01 0.01 0.01 \; \$1/sd-prob
0 0.01 0.01 0.01 0.01 0.99 0.01 0.01 0.01 0.01 0.01 0.01 0.01 0.99
0.01 0.01 0.01 \;;
#X obj 20 604 makeloop \$1/bd \$1;
#X msg 713 362 \; \$2/loop-length \$1 \;;
#X obj 623 344 symbol \$1;
#X msg 682 397 \; \$1/bd-prob 0 1 0.1 0.5 0.1 0.05 0.1 0.01 0.1 0.8
0.1 0.5 0.1 0.05 0.01 0.01 0.2 \; \$1/sd-prob 0 0 0.05 0.05 0.05 0.95
0 0 0.2 0 0.05 0 0 0.95 0 0 0.1 \;;
#X obj 505 210 symbol \$1;
#X msg 505 231 \; \$1/bd-makeloop bang \; \$1/sd-makeloop bang \; \$1/hh-makeloop
bang \;;
#X obj 713 343 fsdollar \$1;
#X msg 782 178 \; \$1/hh-prob 0 0.95 0.05 0.95 0.05 0.95 0.1 0.95 0.1
0.95 0.05 0.95 0.05 0.95 0.05 0.95 0.05 \;;
#X msg 759 231 \; \$1/hh-prob 0 0.95 0.75 0.95 0.75 0.95 0.75 0.95
0.75 0.95 0.75 0.95 0.75 0.95 0.75 0.95 0.75 \;;
#X obj 782 158 symbol \$1;
#X obj 710 173 symbol \$1;
#X obj 680 42 s \$1/choose-new-samples;
#X obj 434 89 r \$1/cowbell-offset;
#X obj 136 142 sample-select \$1/sd;
#X obj 9 160 sample bd \$1;
#X obj 19 560 sssad/tablesave \$1/cowbell-loop;
#X text 686 469 big beat bass style;
#X obj 404 139 sample-select \$1/cowbell;
#X obj 8 136 sample-select \$1/bd;
#X obj 280 178 sample-select \$1/hh;
#X obj 18 527 s \$0/tick;
#X obj 18 504 r \$1/tick;
#X obj 150 604 makeloop \$1/sd \$1;
#X obj 280 604 makeloop \$1/hh \$1;
#X obj 280 200 sample hh \$1;
#X obj 136 164 sample sd \$1;
#X obj 404 316 r \$1/cb-volume;
#X connect 0 0 21 1;
#X connect 0 0 20 1;
#X connect 0 0 22 1;
#X connect 0 0 41 1;
#X connect 1 0 2 0;
#X connect 1 1 3 0;
#X connect 7 0 73 0;
#X connect 7 1 8 0;
#X connect 8 0 9 0;
#X connect 9 0 10 0;
#X connect 10 0 77 0;
#X connect 11 0 13 0;
#X connect 12 0 48 0;
#X connect 13 0 53 0;
#X connect 14 0 84 0;
#X connect 14 1 17 0;
#X connect 15 0 16 0;
#X connect 16 0 18 0;
#X connect 17 0 15 0;
#X connect 18 0 19 0;
#X connect 19 0 13 1;
#X connect 20 0 14 0;
#X connect 21 0 90 0;
#X connect 22 0 28 0;
#X connect 23 0 67 0;
#X connect 24 0 25 0;
#X connect 25 0 81 0;
#X connect 25 1 80 0;
#X connect 27 0 55 0;
#X connect 28 0 89 0;
#X connect 28 1 31 0;
#X connect 29 0 30 0;
#X connect 30 0 32 0;
#X connect 31 0 29 0;
#X connect 32 0 33 0;
#X connect 33 0 27 1;
#X connect 34 0 40 0;
#X connect 34 1 69 0;
#X connect 35 0 7 0;
#X connect 35 1 34 0;
#X connect 36 0 35 0;
#X connect 39 1 37 0;
#X connect 40 0 39 0;
#X connect 41 0 44 0;
#X connect 42 0 47 0;
#X connect 44 0 88 0;
#X connect 45 0 42 0;
#X connect 46 0 75 0;
#X connect 46 1 36 0;
#X connect 46 2 24 0;
#X connect 46 3 43 0;
#X connect 47 0 50 0;
#X connect 48 0 1 2;
#X connect 49 0 51 0;
#X connect 50 0 1 3;
#X connect 51 0 48 1;
#X connect 52 0 50 1;
#X connect 53 0 1 1;
#X connect 54 0 53 1;
#X connect 55 0 1 0;
#X connect 56 0 55 1;
#X connect 57 0 56 0;
#X connect 58 0 54 0;
#X connect 59 0 20 0;
#X connect 60 0 22 0;
#X connect 61 0 21 0;
#X connect 62 0 41 0;
#X connect 63 0 46 0;
#X connect 64 0 82 0;
#X connect 65 0 46 0;
#X connect 66 0 82 0;
#X connect 67 0 68 0;
#X connect 69 0 70 0;
#X connect 73 0 74 0;
#X connect 75 0 76 0;
#X connect 77 0 72 0;
#X connect 80 0 78 0;
#X connect 81 0 79 0;
#X connect 83 0 44 1;
#X connect 85 0 27 0;
#X connect 92 0 91 0;
#X connect 95 0 12 0;
#X connect 96 0 11 0;
#X connect 97 0 52 0;
#X restore 17 59 pd breakbeats;
#X obj 17 17 r \$1/beatshift;
#X obj 18 91 outlet~;
#X obj 92 91 outlet~;
#X obj 314 17 samples;
#X msg 315 115 \; \$1/bd-samples 9 \; \$1/sd-samples 10 \; \$1/hh-samples
9 \;;
#X obj 315 46 loadbang;
#X obj 315 91 symbol \$1;
#X obj 315 69 delay 1;
#X connect 0 0 2 0;
#X connect 0 1 3 0;
#X connect 1 0 0 0;
#X connect 6 0 8 0;
#X connect 7 0 5 0;
#X connect 8 0 7 0;
