#N canvas 662 310 450 404 10;
#X obj 31 270 / 255;
#X obj 53 222 tabread \$1-prob;
#X obj 31 77 t b 0;
#X obj 31 176 f;
#X obj 59 176 + 1;
#X obj 12 15 r \$1-makeloop;
#X obj 31 292 <;
#X obj 31 197 t b f f;
#X obj 31 155 until;
#X obj 31 133 16;
#X obj 75 107 r \$2/loop-length;
#X obj 12 372 filltable \$1-loop;
#X obj 12 347 list;
#X obj 118 323 t l;
#X obj 12 38 t b b b;
#X obj 197 66 sssad/auto \$1-loop \$1-loop;
#X obj 31 322 list prepend;
#X obj 31 248 seededrandom 255 \$2/seed;
#X connect 0 0 6 0;
#X connect 1 0 6 1;
#X connect 2 0 9 0;
#X connect 2 1 3 1;
#X connect 3 0 4 0;
#X connect 3 0 7 0;
#X connect 4 0 3 1;
#X connect 5 0 14 0;
#X connect 6 0 16 0;
#X connect 7 0 17 0;
#X connect 7 1 1 0;
#X connect 8 0 3 0;
#X connect 9 0 8 0;
#X connect 10 0 9 1;
#X connect 12 0 11 0;
#X connect 13 0 16 1;
#X connect 14 0 12 0;
#X connect 14 1 2 0;
#X connect 14 2 16 1;
#X connect 16 0 13 0;
#X connect 16 0 12 1;
#X connect 17 0 0 0;
